<?xml version="1.0" encoding="UTF-8" standalone="no"?>
<!-- Created with Inkscape (http://www.inkscape.org/) -->
<svg
   xmlns:dc="http://purl.org/dc/elements/1.1/"
   xmlns:cc="http://creativecommons.org/ns#"
   xmlns:rdf="http://www.w3.org/1999/02/22-rdf-syntax-ns#"
   xmlns:svg="http://www.w3.org/2000/svg"
   xmlns="http://www.w3.org/2000/svg"
   xmlns:sodipodi="http://sodipodi.sourceforge.net/DTD/sodipodi-0.dtd"
   xmlns:inkscape="http://www.inkscape.org/namespaces/inkscape"
   width="744.09448819"
   height="1052.3622047"
   id="svg2"
   sodipodi:version="0.32"
   inkscape:version="0.46"
   sodipodi:docname="Hyphen-Minus.svg"
   inkscape:output_extension="org.inkscape.output.svg.inkscape">
  <defs
     id="defs4">
    <inkscape:perspective
       sodipodi:type="inkscape:persp3d"
       inkscape:vp_x="0 : 526.18109 : 1"
       inkscape:vp_y="0 : 1000 : 0"
       inkscape:vp_z="744.09448 : 526.18109 : 1"
       inkscape:persp3d-origin="372.04724 : 350.78739 : 1"
       id="perspective10" />
  </defs>
  <sodipodi:namedview
     id="base"
     pagecolor="#ffffff"
     bordercolor="#666666"
     borderopacity="1.0"
     gridtolerance="10000"
     guidetolerance="10"
     objecttolerance="10"
     inkscape:pageopacity="0.0"
     inkscape:pageshadow="2"
     inkscape:zoom="0.49497475"
     inkscape:cx="393.917"
     inkscape:cy="483.21876"
     inkscape:document-units="px"
     inkscape:current-layer="layer1"
     showgrid="false"
     inkscape:window-width="645"
     inkscape:window-height="722"
     inkscape:window-x="691"
     inkscape:window-y="107" />
  <metadata
     id="metadata7">
    <rdf:RDF>
      <cc:Work
         rdf:about="">
        <dc:format>image/svg+xml</dc:format>
        <dc:type
           rdf:resource="http://purl.org/dc/dcmitype/StillImage" />
      </cc:Work>
    </rdf:RDF>
  </metadata>
  <g
     inkscape:label="Layer 1"
     inkscape:groupmode="layer"
     id="layer1">
    <path
       style="font-size:1000px;font-style:normal;font-variant:normal;font-weight:normal;font-stretch:normal;fill:#ffffff;fill-opacity:1;stroke:none;stroke-width:1px;stroke-linecap:butt;stroke-linejoin:miter;stroke-opacity:1;font-family:OCRA;-inkscape-font-specification:OCRA"
       d="M 146,635.36218 L 345,634.36218 C 474.33286,634.3626 540.33279,634.69593 543,635.36218 C 550.33278,638.02926 556.33278,641.36259 561,645.36218 C 566.33277,649.36259 570.6661,654.69591 574,661.36218 C 577.33276,668.02923 578.99942,681.69589 579,702.36218 C 578.99942,723.02918 577.33276,736.69583 574,743.36218 C 570.6661,750.02915 566.33277,755.36248 561,759.36218 C 556.33278,763.36247 550.33278,766.6958 543,769.36218 C 540.33279,770.02913 474.66619,770.36246 346,770.36218 L 148,769.36218 C 141.33319,768.6958 135.3332,766.6958 130,763.36218 C 123.33321,759.36248 117.66655,753.69581 113,746.36218 C 111.66656,744.36249 110.66656,742.02916 110,739.36218 C 107.99989,733.3625 106.99989,721.02918 107,702.36218 C 106.99989,683.69588 107.99989,671.36256 110,665.36218 C 111.99989,660.02924 115.66655,654.36258 121,648.36218 C 128.3332,641.69593 136.66653,637.3626 146,635.36218"
       id="text7802" />
  </g>
</svg>
